<?xml version="1.0" encoding="utf-8"?>
<!-- Generator: Adobe Illustrator 21.1.0, SVG Export Plug-In . SVG Version: 6.00 Build 0)  -->
<svg version="1.1" id="Ebene_1" xmlns="http://www.w3.org/2000/svg" xmlns:xlink="http://www.w3.org/1999/xlink" x="0px" y="0px"
	 viewBox="0 0 349 119" style="enable-background:new 0 0 349 119;" xml:space="preserve">
<style type="text/css">
	.st0{fill:#404040;}
	.st1{fill:#9CC134;}
</style>
<g>
	<g>
		<path class="st0" d="M15.1,96.9c-6.6,0-11.8-1.7-15.3-6.4c0,0-1.8-2.9,0.2-4.8C0.8,85,5.7,80,5.7,80c3.4,5.1,6,6.5,9.4,6.5
			s6.1-0.9,7.8-2.9c1.5-2.9-0.8-4.5-0.8-4.5s-9.3-5.9-17.6-11C-4.1,62.8,0,50.5,0,50.5c3.8-6.9,8.9-9.6,16.4-9.6
			c6.7,0.1,12.3,2.3,15.8,6.9c0,0,1.8,2.9-0.2,4.8c-0.8,0.7-5.3,5.5-5.3,5.5c-3.5-5-6.9-6.7-10.2-6.7c-3.5,0-4.8,0.6-6.5,3.2
			s0.9,4.5,1.3,4.7c0.6,0.3,7.4,4.4,13.3,7.8c13.8,7.8,8.7,19.4,8.7,19.4C30.1,92.3,25.5,96.9,15.1,96.9z"/>
		<path class="st0" d="M81.2,72.3c0,4.1-4.2,4.1-4.2,4.1l-28.5-0.1c1.6,6.9,5.5,10,10.3,10c6.7,0,7.6-3.8,10.5-3.8l6,0.1
			c2.7,0,3.1,1,2.6,3.2c-1.1,4.6-8.3,11.1-19.1,11.1c-15.4,0-22.5-13.2-22.5-27.9c0-14.8,7.1-27.9,22.5-27.9S81.3,54.2,81.3,69
			C81.2,70,81.2,72.3,81.2,72.3z M58.8,51.6c-5.5,0-9.9,4.2-10.9,13.7h21.7C68.7,55.8,64.2,51.6,58.8,51.6z"/>
		<path class="st0" d="M116.1,94c-3.6,2.4-7.9,2.4-10.1,2.5c-1.4,0-16.8,0-16.8-19V52.6h-3.7c0,0-4.2,0.1-4.2-4v-2.5
			c0-0.7,0.2-4.2,4.2-4.2h3.8V27.4c0,0-0.1-4.2,4.1-4.2h3.1c0.6,0,4.2,0.1,4.2,4.2V42h11.4c0,0,4.2-0.1,4.2,4.1v2.4
			c0,0.6-0.1,4.2-4.2,4.2h-11.5v26c0,0.9,0.1,7.2,4.8,7.2c2.2,0,3.8-0.2,5.1-1.1c0,0,3.4-1.9,5.7,1.1l1.2,2.5
			C117.5,88.3,119.2,91.9,116.1,94z"/>
		<path class="st0" d="M136.3,94.5c0,0-2.5,3.1-5.7,1.2c-3.2-2.1-7.4-6.4-7.4-13.4V27.4c0,0-0.1-4.3,4.1-4.3h3.1
			c0.6,0,4.2,0.1,4.2,4.2v55.9c0,2.5,1.7,3.5,1.7,3.5s3.4,2.3,1.6,5.7L136.3,94.5z"/>
		<path class="st0" d="M158,34.8c-0.1,4-3.5,4.2-4.2,4.2h-3.2c-4.2,0-4.1-4.2-4.1-4.2v-2.2c0.1-4.1,3.7-4.2,4.2-4.2h3.1
			c4.2,0,4.1,4.3,4.1,4.3L158,34.8L158,34.8z M158,91.7c0,4-3.4,4.2-4.1,4.2h-3.3c-4.1,0-4-4.2-4-4.2V46.1c0-4.1,3.6-4.2,4.2-4.2
			h3.2c4.2,0,4.1,4.3,4.1,4.3L158,91.7z"/>
		<path class="st0" d="M182.3,96.9c-6.6,0-11.8-1.7-15.3-6.4c0,0-1.8-2.9,0.2-4.8c0.8-0.7,5.7-5.7,5.7-5.7c3.4,5.1,6,6.5,9.4,6.5
			s6.1-0.9,7.8-2.9c1.5-2.9-0.8-4.5-0.8-4.5s-9.3-5.9-17.6-10.9c-8.6-5.3-4.5-17.6-4.5-17.6c3.8-6.9,8.9-9.6,16.4-9.6
			c6.7,0.1,12.3,2.3,15.8,6.9c0,0,1.8,2.9-0.2,4.8c-0.8,0.7-5.3,5.5-5.3,5.5c-3.5-5-6.9-6.7-10.2-6.7c-3.5,0-4.8,0.6-6.5,3.2
			s0.9,4.5,1.3,4.7c0.6,0.3,7.4,4.4,13.3,7.8c13.8,7.8,8.7,19.4,8.7,19.4C197.4,92.3,192.7,96.9,182.3,96.9z"/>
		<path class="st0" d="M241.5,94c-3.6,2.4-7.9,2.4-10.1,2.5c-1.4,0-16.8,0-16.8-19V52.6h-3.7c0,0-4.2,0.1-4.2-4v-2.5
			c0-0.7,0.2-4.2,4.2-4.2h3.8V27.4c0,0-0.1-4.2,4.1-4.2h3.1c0.6,0,4.2,0.1,4.2,4.2V42h11.4c0,0,4.2-0.1,4.2,4.1v2.4
			c0,0.6-0.1,4.2-4.2,4.2H226v26c0,0.9,0.1,7.2,4.8,7.2c2.2,0,3.8-0.2,5.1-1.1c0,0,3.4-1.9,5.7,1.1l1.2,2.5
			C242.9,88.3,244.6,91.9,241.5,94z"/>
	</g>
	<g>
		<path class="st1" d="M257.1,93.2c0,2.9-2.8,2.8-2.8,2.8H251c-2.8,0-2.7-2.9-2.7-2.9c0-0.8,0-1.7,0-2.5c0.2-1.6,0.7-2.7,2.8-2.7
			h3.4c2.8,0,2.7,2.9,2.7,2.9L257.1,93.2z"/>
		<path class="st1" d="M289.4,46.8c-1.8,2.4-4.4,0.9-4.4,0.9c-1.1-0.6-2.5-0.9-4-0.9c-2.9,0-7.8,2.3-7.8,5.6v3.8h8.9
			c3.2,0,3.2,2.8,3.2,3.3v1.8c0,3.2-3.3,3.1-3.3,3.1h-8.8v28.3c0,3.1-2.6,3.2-3.2,3.2h-2.5c-3.2,0-3.2-3.3-3.2-3.3V64.4h-2.8
			c-3.1,0-3.2-2.7-3.2-3.2v-1.8c0-3.2,3.3-3.2,3.3-3.2h2.8v-2.8c0-5.3,4.9-9.7,4.9-9.7c2.5-2.1,7-5,12.2-5c1.8,0,4.9,0.2,7.6,1.8
			c2.5,1.6,1.2,4.4,1.2,4.4L289.4,46.8z"/>
		<path class="st1" d="M345.8,95.9h-2.3c-0.6,0-3.2-0.1-3.2-3.2v-18c0-9.8-3.8-13.3-9-13.3c-2.5,0-4.5,0.9-7.8,4.1V74l0.1,18.7
			c0,0,0.1,3.3-3.2,3.3h-2.5c-0.6,0-3.2-0.1-3.2-3.2V73.9v-2.5c-0.8-6.9-4.2-10-8.8-10c-2.5,0-4.5,0.9-7.8,4.1V74l0.1,18.6
			c0,0,0.1,3.3-3.2,3.3h-2.5c-0.6,0-3.2-0.1-3.2-3.2l0.2-18.7v-8c0-3.4,4.9-7.7,4.9-7.7c2.5-2.1,6.9-4.9,12.1-4.9
			c4.1,0,8.8,1.5,12.2,5.7c0.4-0.4,0.8-0.7,0.9-0.8c2.5-2.5,7.2-5,12.2-5c7.5,0,17.2,5.1,17.2,20.6v18.7
			C349,92.6,349.1,95.9,345.8,95.9z"/>
	</g>
</g>
</svg>
